<svg width="156" height="42" viewBox="0 0 156 42" fill="none" xmlns="http://www.w3.org/2000/svg">
<mask id="mask0" mask-type="alpha" maskUnits="userSpaceOnUse" x="0" y="-1" width="156" height="43">
<path fill-rule="evenodd" clip-rule="evenodd" d="M0 42H155.4V-0.00012207H0V42Z" fill="white"/>
</mask>
<g mask="url(#mask0)">
<path fill-rule="evenodd" clip-rule="evenodd" d="M73.0058 15.0389H74.0654C75.1052 15.0389 75.7181 14.4991 75.7181 13.4928C75.7181 12.4927 75.1052 11.953 74.079 11.953H73.0058V15.0389ZM74.7256 10.0806C76.7915 10.0806 78.1911 11.4194 78.1911 13.4866C78.1911 15.5389 76.7183 16.8777 74.5791 16.8777H73.0058V19.6968H70.5602V10.0806H74.7256Z" fill="#002930"/>
<path fill-rule="evenodd" clip-rule="evenodd" d="M81.3818 17.7246H82.5209C84.114 17.7246 84.9677 16.758 84.9677 14.8385C84.9677 13.0331 84.0681 12.0529 82.5209 12.0529H81.3818V17.7246ZM82.841 10.08C85.747 10.08 87.4531 11.7662 87.4531 14.8322C87.4531 17.9045 85.7408 19.6974 82.841 19.6974H78.9362V10.08H82.841Z" fill="#002930"/>
<path fill-rule="evenodd" clip-rule="evenodd" d="M90.7442 15.0389H91.8038C92.8436 15.0389 93.4566 14.4991 93.4566 13.4928C93.4566 12.4927 92.8436 11.953 91.8175 11.953H90.7442V15.0389ZM92.464 10.0806C94.53 10.0806 95.9296 11.4194 95.9296 13.4866C95.9296 15.5389 94.4568 16.8777 92.3176 16.8777H90.7443V19.6968H88.2986V10.0806H92.464Z" fill="#002930"/>
<path fill-rule="evenodd" clip-rule="evenodd" d="M70.5602 34.2731H73.0058V24.6569H70.5602V34.2731Z" fill="#002930"/>
<path fill-rule="evenodd" clip-rule="evenodd" d="M76.3502 34.2737V26.6291H73.6974V24.6575H81.4425V26.6291H78.7896V34.2737H76.3502Z" fill="#002930"/>
<path fill-rule="evenodd" clip-rule="evenodd" d="M81.4072 31.4279H88.2316V29.3285H81.4072V31.4279Z" fill="#002930"/>
<path fill-rule="evenodd" clip-rule="evenodd" d="M91.6621 30.4017H93.8546L92.7887 26.6966H92.7354L91.6621 30.4017ZM94.3347 32.1611H91.1893L90.5763 34.2742H88.0836L91.3158 24.6567H94.3074L97.5397 34.2742H94.9415L94.3347 32.1611Z" fill="#002930"/>
<path fill-rule="evenodd" clip-rule="evenodd" d="M97.2791 29.462C97.2791 26.3228 99.0857 24.4901 101.951 24.4901C104.384 24.4901 106.229 26.056 106.302 28.3292H103.95C103.831 27.1963 103.024 26.4493 101.951 26.4493C100.618 26.4493 99.7719 27.5896 99.7719 29.4558C99.7719 31.3418 100.612 32.4809 101.958 32.4809C103.03 32.4809 103.811 31.7749 103.963 30.6482H106.316C106.203 32.9338 104.43 34.4401 101.951 34.4401C99.0721 34.4401 97.2791 32.6074 97.2791 29.462Z" fill="#002930"/>
<path fill-rule="evenodd" clip-rule="evenodd" d="M109.66 30.4017H111.853L110.787 26.6966H110.734L109.66 30.4017ZM112.333 32.1611H109.188L108.575 34.2742H106.082L109.314 24.6567H112.306L115.538 34.2742H112.94L112.333 32.1611Z" fill="#002930"/>
<path fill-rule="evenodd" clip-rule="evenodd" d="M118.563 32.3011H119.702C121.295 32.3011 122.149 31.3345 122.149 29.415C122.149 27.6096 121.249 26.6293 119.702 26.6293H118.563V32.3011ZM120.022 24.6565C122.928 24.6565 124.634 26.3427 124.634 29.4088C124.634 32.481 122.922 34.274 120.022 34.274H116.117V24.6565H120.022Z" fill="#002930"/>
<path fill-rule="evenodd" clip-rule="evenodd" d="M132.071 34.2737H125.48V24.6575H132.071V26.6291H127.925V28.5424H131.824V30.3416H127.925V32.3008H132.071V34.2737Z" fill="#002930"/>
<path fill-rule="evenodd" clip-rule="evenodd" d="M141.512 34.2737V28.2694H141.465L139.087 34.2737H137.687L135.314 28.2694H135.261V34.2737H133.108V24.6575H135.934L138.359 30.9409H138.413L140.84 24.6575H143.665V34.2737H141.512Z" fill="#002930"/>
<path fill-rule="evenodd" clip-rule="evenodd" d="M147.556 34.2737V30.9682L144.244 24.6575H146.87L148.782 28.6553H148.829L150.735 24.6575H153.314L150.001 30.9682V34.2737H147.556Z" fill="#002930"/>
<path fill-rule="evenodd" clip-rule="evenodd" d="M14.1257 6.92285C6.33756 6.92285 -0.000427246 13.2597 -0.000427246 21.049C-0.000427246 28.8372 6.33756 35.1741 14.1257 35.1741C21.9139 35.1741 28.2508 28.8372 28.2508 21.049C28.2508 13.2597 21.9139 6.92285 14.1257 6.92285Z" fill="#00B533"/>
<path fill-rule="evenodd" clip-rule="evenodd" d="M37.7643 42.0968H29.0676L39.3467 0.00012207H48.0434L37.7643 42.0968Z" fill="#002930"/>
<path fill-rule="evenodd" clip-rule="evenodd" d="M50.4194 42.0968H41.7227L52.0017 0.00012207H60.6995L50.4194 42.0968Z" fill="#002930"/>
</g>
</svg>
