<svg width="18" height="20" viewBox="0 0 18 20" fill="none" xmlns="http://www.w3.org/2000/svg">
    <path d="M16.4094 12.9333L17.5113 13.5942C17.5793 13.6349 17.6355 13.6925 17.6746 13.7614C17.7137 13.8304 17.7342 13.9082 17.7342 13.9875C17.7342 14.0667 17.7137 14.1446 17.6746 14.2135C17.6355 14.2824 17.5793 14.34 17.5113 14.3807L9.47211 19.2042C9.32954 19.2899 9.16635 19.3351 9.00003 19.3351C8.8337 19.3351 8.67052 19.2899 8.52794 19.2042L0.48878 14.3807C0.420805 14.34 0.36454 14.2824 0.325472 14.2135C0.286405 14.1446 0.265869 14.0667 0.265869 13.9875C0.265869 13.9082 0.286405 13.8304 0.325472 13.7614C0.36454 13.6925 0.420805 13.6349 0.48878 13.5942L1.59061 12.9333L9.00003 17.3791L16.4094 12.9333ZM16.4094 8.62496L17.5113 9.28588C17.5793 9.32657 17.6355 9.38419 17.6746 9.45311C17.7137 9.52203 17.7342 9.5999 17.7342 9.67913C17.7342 9.75835 17.7137 9.83622 17.6746 9.90514C17.6355 9.97407 17.5793 10.0317 17.5113 10.0724L9.00003 15.1791L0.48878 10.0724C0.420805 10.0317 0.36454 9.97407 0.325472 9.90514C0.286405 9.83622 0.265869 9.75835 0.265869 9.67913C0.265869 9.5999 0.286405 9.52203 0.325472 9.45311C0.36454 9.38419 0.420805 9.32657 0.48878 9.28588L1.59061 8.62496L9.00003 13.0708L16.4094 8.62496ZM9.4712 0.199879L17.5113 5.02338C17.5793 5.06407 17.6355 5.12169 17.6746 5.19061C17.7137 5.25953 17.7342 5.3374 17.7342 5.41663C17.7342 5.49585 17.7137 5.57372 17.6746 5.64265C17.6355 5.71157 17.5793 5.76919 17.5113 5.80988L9.00003 10.9166L0.48878 5.80988C0.420805 5.76919 0.36454 5.71157 0.325472 5.64265C0.286405 5.57372 0.265869 5.49585 0.265869 5.41663C0.265869 5.3374 0.286405 5.25953 0.325472 5.19061C0.36454 5.12169 0.420805 5.06407 0.48878 5.02338L8.52794 0.199879C8.67052 0.114222 8.8337 0.0689697 9.00003 0.0689697C9.16635 0.0689697 9.32954 0.114222 9.47211 0.199879H9.4712ZM9.00003 2.0543L3.39645 5.41663L9.00003 8.77896L14.6036 5.41663L9.00003 2.0543Z"
          fill="currentColor"/>
</svg>
