<svg width="18" height="18" viewBox="0 0 18 18" fill="none" xmlns="http://www.w3.org/2000/svg">
    <path d="M13.1666 2.50004H16.5C16.721 2.50004 16.9329 2.58784 17.0892 2.74412C17.2455 2.9004 17.3333 3.11236 17.3333 3.33337V16.6667C17.3333 16.8877 17.2455 17.0997 17.0892 17.256C16.9329 17.4122 16.721 17.5 16.5 17.5H1.49996C1.27895 17.5 1.06698 17.4122 0.910704 17.256C0.754423 17.0997 0.666626 16.8877 0.666626 16.6667V3.33337C0.666626 3.11236 0.754423 2.9004 0.910704 2.74412C1.06698 2.58784 1.27895 2.50004 1.49996 2.50004H4.83329V0.833374H6.49996V2.50004H11.5V0.833374H13.1666V2.50004ZM11.5 4.16671H6.49996V5.83337H4.83329V4.16671H2.33329V7.50004H15.6666V4.16671H13.1666V5.83337H11.5V4.16671ZM15.6666 9.16671H2.33329V15.8334H15.6666V9.16671Z"
          fill="currentColor"/>
</svg>
