<svg width="20" height="20" viewBox="0 0 20 20" fill="none" xmlns="http://www.w3.org/2000/svg">
    <path opacity="1"
          d="M4.74296 2.48967L5.79438 3.99209C4.51671 4.88654 3.55749 6.16505 3.05605 7.64188C2.55462 9.11872 2.53709 10.717 3.00602 12.2044C3.47494 13.6919 4.40589 14.9912 5.66363 15.9134C6.92138 16.8357 8.4404 17.3329 10 17.3329C11.5597 17.3329 13.0787 16.8357 14.3365 15.9134C15.5942 14.9912 16.5251 13.6919 16.9941 12.2044C17.463 10.717 17.4455 9.11872 16.944 7.64188C16.4426 6.16505 15.4834 4.88654 14.2057 3.99209L15.2571 2.48967C16.4652 3.33431 17.4516 4.45817 18.1322 5.76571C18.8129 7.07326 19.1678 8.52582 19.1667 9.99992C19.1667 15.0627 15.0628 19.1666 10 19.1666C4.93729 19.1666 0.833376 15.0627 0.833376 9.99992C0.832315 8.52582 1.1872 7.07326 1.86786 5.76571C2.54853 4.45817 3.53484 3.33431 4.74296 2.48967ZM9.08338 9.99992V0.833252H10.9167V9.99992H9.08338Z"
          fill="currentColor"/>
</svg>
