<svg width="18" height="20" viewBox="0 0 18 20" fill="none" xmlns="http://www.w3.org/2000/svg">
    <path d="M1.06172 14.5833C0.67422 13.9132 0.372998 13.1968 0.165222 12.4511C0.617421 12.2211 0.997184 11.8705 1.2625 11.4381C1.52781 11.0057 1.66834 10.5083 1.66853 10.001C1.66872 9.49365 1.52857 8.99616 1.26357 8.56354C0.998582 8.13092 0.619082 7.78004 0.167056 7.54971C0.581422 6.05141 1.37039 4.68325 2.45964 3.57413C2.88506 3.85071 3.37871 4.00419 3.88595 4.01759C4.3932 4.03099 4.89426 3.90379 5.33369 3.65006C5.77312 3.39632 6.13378 3.02596 6.37575 2.57995C6.61773 2.13394 6.73159 1.62967 6.70472 1.12296C8.20999 0.733947 9.78952 0.734578 11.2945 1.12479C11.2678 1.63149 11.3819 2.13568 11.6241 2.58157C11.8662 3.02745 12.227 3.39764 12.6666 3.65118C13.1061 3.90472 13.6072 4.03171 14.1144 4.01812C14.6216 4.00452 15.1152 3.85085 15.5405 3.57413C16.0712 4.11496 16.5424 4.73004 16.9384 5.41663C17.3353 6.10321 17.6323 6.81913 17.8349 7.54879C17.3827 7.77879 17.0029 8.12939 16.7376 8.56181C16.4723 8.99423 16.3318 9.49161 16.3316 9.99894C16.3314 10.5063 16.4715 11.0038 16.7365 11.4364C17.0015 11.869 17.381 12.2199 17.8331 12.4502C17.4187 13.9485 16.6297 15.3167 15.5405 16.4258C15.1151 16.1492 14.6214 15.9957 14.1142 15.9823C13.6069 15.9689 13.1058 16.0961 12.6664 16.3499C12.227 16.6036 11.8663 16.974 11.6244 17.42C11.3824 17.866 11.2685 18.3702 11.2954 18.877C9.79012 19.266 8.21059 19.2653 6.70564 18.8751C6.73226 18.3684 6.61819 17.8642 6.37602 17.4184C6.13386 16.9725 5.77306 16.6023 5.33355 16.3487C4.89403 16.0952 4.39294 15.9682 3.88572 15.9818C3.3785 15.9954 2.88494 16.1491 2.45964 16.4258C1.91788 15.873 1.44818 15.2539 1.06172 14.5833ZM6.25006 14.763C7.22688 15.3264 7.96133 16.2306 8.31256 17.3021C8.76997 17.3452 9.22922 17.3461 9.68664 17.303C10.0381 16.2313 10.7729 15.3271 11.7501 14.7639C12.7265 14.1989 13.8772 14.0145 14.9813 14.246C15.2471 13.872 15.4763 13.4732 15.667 13.0561C14.9148 12.2159 14.4992 11.1277 14.5001 9.99996C14.5001 8.84496 14.9309 7.76604 15.667 6.94379C15.475 6.52685 15.2448 6.12854 14.9795 5.75396C13.8761 5.98524 12.7261 5.80115 11.7501 5.23696C10.7732 4.67355 10.0388 3.76936 9.68756 2.69779C9.23014 2.65471 8.77089 2.65379 8.31347 2.69688C7.96202 3.76859 7.22723 4.67281 6.25006 5.23604C5.27361 5.801 4.12291 5.98544 3.01881 5.75396C2.75349 6.12822 2.52393 6.52658 2.33314 6.94379C3.08533 7.78397 3.50087 8.87227 3.50006 9.99996C3.50006 11.155 3.06922 12.2339 2.33314 13.0561C2.52515 13.4731 2.7553 13.8714 3.02064 14.246C4.12405 14.0147 5.274 14.1988 6.25006 14.763ZM9.00006 12.75C8.27071 12.75 7.57124 12.4602 7.05551 11.9445C6.53979 11.4288 6.25006 10.7293 6.25006 9.99996C6.25006 9.27061 6.53979 8.57114 7.05551 8.05542C7.57124 7.53969 8.27071 7.24996 9.00006 7.24996C9.7294 7.24996 10.4289 7.53969 10.9446 8.05542C11.4603 8.57114 11.7501 9.27061 11.7501 9.99996C11.7501 10.7293 11.4603 11.4288 10.9446 11.9445C10.4289 12.4602 9.7294 12.75 9.00006 12.75ZM9.00006 10.9166C9.24317 10.9166 9.47633 10.82 9.64824 10.6481C9.82014 10.4762 9.91672 10.2431 9.91672 9.99996C9.91672 9.75684 9.82014 9.52369 9.64824 9.35178C9.47633 9.17987 9.24317 9.08329 9.00006 9.08329C8.75694 9.08329 8.52378 9.17987 8.35187 9.35178C8.17997 9.52369 8.08339 9.75684 8.08339 9.99996C8.08339 10.2431 8.17997 10.4762 8.35187 10.6481C8.52378 10.82 8.75694 10.9166 9.00006 10.9166Z"
          fill="currentColor"/>
</svg>
