<svg width="22" height="16" viewBox="0 0 22 16" fill="none" xmlns="http://www.w3.org/2000/svg">
    <path d="M15.5834 5.43329L20.3619 2.08746C20.4306 2.03929 20.5113 2.01092 20.595 2.00542C20.6787 1.99992 20.7624 2.01752 20.8368 2.05629C20.9112 2.09506 20.9735 2.15351 21.017 2.22528C21.0605 2.29705 21.0834 2.37938 21.0834 2.46329V13.5366C21.0834 13.6205 21.0605 13.7029 21.017 13.7746C20.9735 13.8464 20.9112 13.9049 20.8368 13.9436C20.7624 13.9824 20.6787 14 20.595 13.9945C20.5113 13.989 20.4306 13.9606 20.3619 13.9125L15.5834 10.5666V14.4166C15.5834 14.6597 15.4868 14.8929 15.3149 15.0648C15.143 15.2367 14.9098 15.3333 14.6667 15.3333H1.83335C1.59024 15.3333 1.35708 15.2367 1.18517 15.0648C1.01326 14.8929 0.916687 14.6597 0.916687 14.4166V1.58329C0.916687 1.34018 1.01326 1.10702 1.18517 0.935112C1.35708 0.763203 1.59024 0.666626 1.83335 0.666626H14.6667C14.9098 0.666626 15.143 0.763203 15.3149 0.935112C15.4868 1.10702 15.5834 1.34018 15.5834 1.58329V5.43329ZM15.5834 8.32904L19.25 10.8957V5.10329L15.5834 7.66996V8.32812V8.32904ZM2.75002 2.49996V13.5H13.75V2.49996H2.75002ZM4.58335 4.33329H6.41669V6.16663H4.58335V4.33329Z"
          fill="currentColor"/>
</svg>
