<svg width="16" height="17" viewBox="0 0 16 17" fill="none" xmlns="http://www.w3.org/2000/svg">
    <path d="M10.3565 5.46415L5.64313 10.1783C5.56353 10.2552 5.50005 10.3471 5.45637 10.4488C5.4127 10.5505 5.38971 10.6598 5.38875 10.7705C5.38779 10.8811 5.40887 10.9909 5.45077 11.0933C5.49267 11.1957 5.55455 11.2887 5.6328 11.367C5.71104 11.4452 5.80408 11.5071 5.9065 11.549C6.00891 11.5909 6.11864 11.612 6.22929 11.611C6.33994 11.6101 6.44929 11.5871 6.55096 11.5434C6.65263 11.4997 6.74459 11.4362 6.82146 11.3567L11.5356 6.64332C12.0045 6.17444 12.2679 5.5385 12.2679 4.8754C12.2679 4.21231 12.0045 3.57637 11.5356 3.10749C11.0667 2.63861 10.4308 2.37519 9.76771 2.37519C9.10461 2.37519 8.46867 2.63861 7.99979 3.10749L3.28562 7.82165C2.89069 8.20676 2.57615 8.66645 2.36026 9.17407C2.14436 9.68168 2.03141 10.2271 2.02796 10.7787C2.0245 11.3303 2.13061 11.8771 2.34012 12.3874C2.54964 12.8977 2.85839 13.3613 3.24847 13.7513C3.63855 14.1413 4.10219 14.45 4.6125 14.6595C5.12281 14.8689 5.66963 14.9749 6.22124 14.9714C6.77284 14.9679 7.31826 14.8548 7.82584 14.6389C8.33343 14.4229 8.79307 14.1083 9.17813 13.7133L13.8923 8.99999L15.0706 10.1783L10.3565 14.8925C9.81476 15.4342 9.17166 15.8639 8.46389 16.1571C7.75612 16.4502 6.99754 16.6011 6.23146 16.6011C5.46538 16.6011 4.70679 16.4502 3.99902 16.1571C3.29126 15.8639 2.64816 15.4342 2.10646 14.8925C1.56476 14.3508 1.13505 13.7077 0.841886 12.9999C0.548718 12.2922 0.397827 11.5336 0.397827 10.7675C0.397827 10.0014 0.548718 9.24282 0.841886 8.53505C1.13505 7.82728 1.56476 7.18419 2.10646 6.64249L6.82146 1.92915C7.6073 1.17016 8.65981 0.750186 9.7523 0.759679C10.8448 0.769172 11.8898 1.20738 12.6624 1.97991C13.4349 2.75244 13.8731 3.7975 13.8826 4.88998C13.8921 5.98247 13.4721 7.03498 12.7131 7.82082L7.99979 12.5367C7.76757 12.7688 7.4919 12.953 7.18851 13.0786C6.88512 13.2042 6.55995 13.2689 6.23158 13.2688C5.90321 13.2688 5.57806 13.2041 5.2747 13.0784C4.97134 12.9527 4.69571 12.7685 4.46354 12.5362C4.23137 12.304 4.04722 12.0283 3.9216 11.725C3.79597 11.4216 3.73133 11.0964 3.73137 10.768C3.73141 10.4397 3.79612 10.1145 3.92182 9.81115C4.04752 9.50778 4.23174 9.23215 4.46396 8.99999L9.17813 4.28582L10.3565 5.46415Z"
          fill="currentColor"/>
</svg>
