<svg width="20" height="18" viewBox="0 0 20 18" fill="none" xmlns="http://www.w3.org/2000/svg">
    <path d="M1.74998 0.75H18.25C18.4931 0.75 18.7263 0.846577 18.8982 1.01849C19.0701 1.19039 19.1666 1.42355 19.1666 1.66667V16.3333C19.1666 16.5764 19.0701 16.8096 18.8982 16.9815C18.7263 17.1534 18.4931 17.25 18.25 17.25H1.74998C1.50686 17.25 1.27371 17.1534 1.1018 16.9815C0.92989 16.8096 0.833313 16.5764 0.833313 16.3333V1.66667C0.833313 1.42355 0.92989 1.19039 1.1018 1.01849C1.27371 0.846577 1.50686 0.75 1.74998 0.75ZM2.66665 2.58333V15.4167H17.3333V2.58333H2.66665ZM5.41665 9.91667H7.24998V13.5833H5.41665V9.91667ZM9.08331 4.41667H10.9166V13.5833H9.08331V4.41667ZM12.75 7.16667H14.5833V13.5833H12.75V7.16667Z"
          fill="currentColor"/>
</svg>
