<svg width="20" height="18" viewBox="0 0 20 18" fill="none" xmlns="http://www.w3.org/2000/svg">
    <path d="M10.7943 0.750163L19.5265 15.8752C19.6069 16.0145 19.6493 16.1726 19.6493 16.3335C19.6493 16.4944 19.607 16.6525 19.5265 16.7918C19.4461 16.9312 19.3303 17.0469 19.191 17.1273C19.0516 17.2078 18.8936 17.2502 18.7327 17.2502H1.26833C1.10742 17.2502 0.949351 17.2078 0.810003 17.1273C0.670655 17.0469 0.55494 16.9312 0.474489 16.7918C0.394037 16.6525 0.351684 16.4944 0.351685 16.3335C0.351686 16.1726 0.394041 16.0145 0.474495 15.8752L9.20666 0.750163C9.28712 0.610823 9.40284 0.495115 9.54218 0.414668C9.68153 0.334222 9.83959 0.29187 10.0005 0.29187C10.1614 0.29187 10.3195 0.334222 10.4588 0.414668C10.5982 0.495115 10.7139 0.610823 10.7943 0.750163ZM2.85599 15.4168H17.145L10.0005 3.04183L2.85599 15.4168ZM9.08383 12.6668H10.9172V14.5002H9.08383V12.6668ZM9.08383 6.25016H10.9172V10.8335H9.08383V6.25016Z"
          fill="currentColor"/>
</svg>
