<svg width="18" height="18" viewBox="0 0 18 18" fill="none" xmlns="http://www.w3.org/2000/svg">
    <path d="M8.99996 17.3333C4.39746 17.3333 0.666626 13.6025 0.666626 8.99996C0.666626 4.39746 4.39746 0.666626 8.99996 0.666626C13.6025 0.666626 17.3333 4.39746 17.3333 8.99996C17.3333 13.6025 13.6025 17.3333 8.99996 17.3333ZM8.99996 15.6666C10.7681 15.6666 12.4638 14.9642 13.714 13.714C14.9642 12.4638 15.6666 10.7681 15.6666 8.99996C15.6666 7.23185 14.9642 5.53616 13.714 4.28591C12.4638 3.03567 10.7681 2.33329 8.99996 2.33329C7.23185 2.33329 5.53616 3.03567 4.28591 4.28591C3.03567 5.53616 2.33329 7.23185 2.33329 8.99996C2.33329 10.7681 3.03567 12.4638 4.28591 13.714C5.53616 14.9642 7.23185 15.6666 8.99996 15.6666ZM8.16663 4.83329H9.83329V6.49996H8.16663V4.83329ZM8.16663 8.16663H9.83329V13.1666H8.16663V8.16663Z"
          fill="currentColor"/>
</svg>
