<svg width="19" height="20" viewBox="0 0 19 20" fill="none" xmlns="http://www.w3.org/2000/svg">
    <path d="M15.4167 6.33337H17.25C17.4931 6.33337 17.7263 6.42995 17.8982 6.60186C18.0701 6.77377 18.1667 7.00693 18.1667 7.25004V18.25C18.1667 18.4932 18.0701 18.7263 17.8982 18.8982C17.7263 19.0701 17.4931 19.1667 17.25 19.1667H9.91667C9.67355 19.1667 9.44039 19.0701 9.26849 18.8982C9.09658 18.7263 9 18.4932 9 18.25V17.3334H1.66667C1.42355 17.3334 1.19039 17.2368 1.01849 17.0649C0.846577 16.893 0.75 16.6598 0.75 16.4167V1.75004C0.75 1.50693 0.846577 1.27377 1.01849 1.10186C1.19039 0.929951 1.42355 0.833374 1.66667 0.833374H14.5C14.7431 0.833374 14.9763 0.929951 15.1482 1.10186C15.3201 1.27377 15.4167 1.50693 15.4167 1.75004V6.33337ZM13.5833 6.33337V2.66671H2.58333V15.5H9V7.25004C9 7.00693 9.09658 6.77377 9.26849 6.60186C9.44039 6.42995 9.67355 6.33337 9.91667 6.33337H13.5833ZM10.8333 8.16671V17.3334H16.3333V8.16671H10.8333Z"
          fill="currentColor"/>
</svg>
