<svg width="17" height="18" viewBox="0 0 17 18" fill="none" xmlns="http://www.w3.org/2000/svg">
    <path d="M0.5 9.83342H5.5V8.16676H0.5V0.538422C0.500012 0.466017 0.518892 0.394866 0.554778 0.33198C0.590664 0.269094 0.642317 0.216645 0.704647 0.179802C0.766977 0.14296 0.837832 0.122995 0.910228 0.121876C0.982623 0.120757 1.05406 0.138523 1.1175 0.173422L16.5025 8.63509C16.5678 8.67106 16.6223 8.7239 16.6602 8.7881C16.6982 8.8523 16.7182 8.92551 16.7182 9.00009C16.7182 9.07466 16.6982 9.14787 16.6602 9.21208C16.6223 9.27628 16.5678 9.32912 16.5025 9.36509L1.1175 17.8268C1.05406 17.8617 0.982623 17.8794 0.910228 17.8783C0.837832 17.8772 0.766977 17.8572 0.704647 17.8204C0.642317 17.7835 0.590664 17.7311 0.554778 17.6682C0.518892 17.6053 0.500012 17.5342 0.5 17.4618V9.83342Z"
          fill="currentColor"/>
</svg>
