<svg width="20" height="18" viewBox="0 0 20 18" fill="none" xmlns="http://www.w3.org/2000/svg">
<path d="M10.8335 9.83329V14.4875L12.3568 12.9641L13.536 14.1433L10.0002 17.6783L6.46432 14.1433L7.64349 12.9641L9.16682 14.4875V9.83329H10.8335ZM10.0002 0.666626C11.431 0.666694 12.8119 1.19255 13.8803 2.14422C14.9488 3.0959 15.6302 4.40701 15.7952 5.82829C16.832 6.11106 17.7366 6.74921 18.3507 7.63123C18.9648 8.51325 19.2494 9.58304 19.1548 10.6536C19.0602 11.7242 18.5924 12.7275 17.8331 13.4881C17.0738 14.2488 16.0714 14.7184 15.001 14.815V13.1366C15.3845 13.0819 15.7532 12.9513 16.0856 12.7524C16.4181 12.5536 16.7076 12.2906 16.9373 11.9786C17.167 11.6667 17.3322 11.3121 17.4234 10.9357C17.5145 10.5592 17.5298 10.1683 17.4683 9.78585C17.4067 9.4034 17.2696 9.03705 17.0649 8.70817C16.8602 8.37929 16.5921 8.09447 16.2762 7.87035C15.9602 7.64623 15.6028 7.48728 15.2247 7.4028C14.8467 7.31832 14.4556 7.30999 14.0743 7.37829C14.2048 6.7707 14.1978 6.1416 14.0537 5.53709C13.9096 4.93257 13.6321 4.36795 13.2415 3.88457C12.8509 3.40119 12.3572 3.0113 11.7964 2.74345C11.2356 2.47561 10.622 2.3366 10.0006 2.3366C9.37912 2.3366 8.76553 2.47561 8.20476 2.74345C7.64399 3.0113 7.15023 3.40119 6.75966 3.88457C6.36908 4.36795 6.09158 4.93257 5.94747 5.53709C5.80337 6.1416 5.79631 6.7707 5.92682 7.37829C5.16654 7.23552 4.38067 7.40061 3.74211 7.83726C3.10355 8.27391 2.6646 8.94634 2.52182 9.70663C2.37905 10.4669 2.54414 11.2528 2.98079 11.8913C3.41744 12.5299 4.08987 12.9689 4.85016 13.1116L5.00016 13.1366V14.815C3.9297 14.7186 2.92716 14.249 2.16777 13.4885C1.40837 12.7279 0.940428 11.7246 0.845718 10.654C0.751007 9.58337 1.03556 8.51353 1.64963 7.63144C2.2637 6.74935 3.16824 6.11111 4.20516 5.82829C4.36991 4.40694 5.05133 3.09572 6.11981 2.14401C7.18828 1.19231 8.56929 0.666512 10.0002 0.666626Z" fill="black"/>
</svg>
