<svg width="20" height="18" viewBox="0 0 20 18" fill="none" xmlns="http://www.w3.org/2000/svg">
    <path d="M0.833314 6.24451C0.832831 5.52236 0.974803 4.80721 1.2511 4.14001C1.5274 3.47281 1.93259 2.86667 2.44348 2.35629C2.95437 1.84591 3.56092 1.44132 4.2284 1.16569C4.89588 0.890058 5.61117 0.748802 6.33331 0.750008H13.6666C16.7036 0.750008 19.1666 3.22042 19.1666 6.24451V17.25H6.33331C3.2964 17.25 0.833314 14.7796 0.833314 11.7555V6.24451ZM17.3333 15.4167V6.24451C17.3309 5.2733 16.9436 4.34264 16.2564 3.65641C15.5691 2.97017 14.6379 2.58431 13.6666 2.58334H6.33331C5.85192 2.58213 5.37503 2.67597 4.92999 2.85946C4.48494 3.04296 4.08049 3.31251 3.73984 3.65265C3.39919 3.99278 3.12904 4.39683 2.94488 4.8416C2.76071 5.28637 2.66616 5.76312 2.66665 6.24451V11.7555C2.66907 12.7267 3.05633 13.6574 3.7436 14.3436C4.43087 15.0298 5.3621 15.4157 6.33331 15.4167H17.3333ZM11.8333 8.08334H13.6666V9.91667H11.8333V8.08334ZM6.33331 8.08334H8.16665V9.91667H6.33331V8.08334Z"
          fill="currentColor"/>
</svg>
